<?xml version="1.0" standalone="no"?><!DOCTYPE svg PUBLIC "-//W3C//DTD SVG 1.1//EN" "http://www.w3.org/Graphics/SVG/1.1/DTD/svg11.dtd"><svg t="1650163166681" class="icon" viewBox="0 0 1024 1024" version="1.1" xmlns="http://www.w3.org/2000/svg" p-id="2578" xmlns:xlink="http://www.w3.org/1999/xlink" width="200" height="200"><defs><style type="text/css"></style></defs><path d="M860.8 512.83h59.96v59.96H860.8zM800.86 632.73h59.95v59.96h-59.95z" fill="#333333" p-id="2579"></path><path d="M800.86 572.78h59.95v59.95h-59.95z" fill="#333333" p-id="2580"></path><path d="M800.86 512.83h59.95v59.96h-59.95zM800.86 452.88h59.95v59.95h-59.95zM740.9 692.68h59.96v59.96H740.9z" fill="#333333" p-id="2581"></path><path d="M740.9 632.73h59.96v59.96H740.9zM740.9 572.78h59.96v59.95H740.9z" fill="#F2A825" p-id="2582"></path><path d="M740.9 512.83h59.96v59.96H740.9zM740.9 452.88h59.96v59.95H740.9z" fill="#F2A825" p-id="2583"></path><path d="M740.9 392.92h59.96v59.96H740.9zM680.95 752.64h59.95v59.95h-59.95z" fill="#333333" p-id="2584"></path><path d="M680.95 692.68h59.95v59.96h-59.95z" fill="#F2A825" p-id="2585"></path><path d="M680.95 632.73h59.95v59.96h-59.95z" fill="#F2A825" p-id="2586"></path><path d="M680.95 572.78h59.95v59.95h-59.95z" fill="#FFCD50" p-id="2587"></path><path d="M680.95 512.83h59.95v59.96h-59.95zM680.95 452.88h59.95v59.95h-59.95z" fill="#F2A825" p-id="2588"></path><path d="M680.95 392.92h59.95v59.96h-59.95z" fill="#333333" p-id="2589"></path><path d="M680.95 332.98h59.95v59.95h-59.95zM680.95 273.02h59.95v59.96h-59.95z" fill="#333333" p-id="2590"></path><path d="M680.95 213.08h59.95v59.95h-59.95zM621 752.64h59.96v59.95H621zM621 692.68h59.96v59.96H621z" fill="#333333" p-id="2591"></path><path d="M621 632.73h59.96v59.96H621zM621 572.78h59.96v59.95H621z" fill="#333333" p-id="2592"></path><path d="M621 512.83h59.96v59.96H621zM621 452.88h59.96v59.95H621z" fill="#333333" p-id="2593"></path><path d="M621 392.92h59.96v59.96H621z" fill="#FFCD50" p-id="2594"></path><path d="M621 332.98h59.96v59.95H621z" fill="#333333" p-id="2595"></path><path d="M621 273.02h59.96v59.96H621z" fill="#75C7F9" p-id="2596"></path><path d="M621 213.08h59.96v59.95H621z" fill="#75C7F9" p-id="2597"></path><path d="M621 153.12h59.96v59.96H621zM561.05 752.64H621v59.95h-59.95z" fill="#333333" p-id="2598"></path><path d="M561.05 692.68H621v59.96h-59.95z" fill="#F2A825" p-id="2599"></path><path d="M561.05 632.73H621v59.96h-59.95zM561.05 572.78H621v59.95h-59.95z" fill="#F2A825" p-id="2600"></path><path d="M561.05 512.83H621v59.96h-59.95zM561.05 452.88H621v59.95h-59.95z" fill="#F2A825" p-id="2601"></path><path d="M561.05 392.92H621v59.96h-59.95z" fill="#333333" p-id="2602"></path><path d="M561.05 332.98H621v59.95h-59.95zM561.05 273.02H621v59.96h-59.95z" fill="#333333" p-id="2603"></path><path d="M561.05 213.08H621v59.95h-59.95zM501.1 752.64h59.96v59.95H501.1z" fill="#333333" p-id="2604"></path><path d="M501.1 692.68h59.96v59.96H501.1z" fill="#FFCD50" p-id="2605"></path><path d="M501.1 632.73h59.96v59.96H501.1zM501.1 572.78h59.96v59.95H501.1z" fill="#FFCD50" p-id="2606"></path><path d="M501.1 512.83h59.96v59.96H501.1zM501.1 452.88h59.96v59.95H501.1zM501.1 392.92h59.96v59.96H501.1z" fill="#FFCD50" p-id="2607"></path><path d="M501.1 332.98h59.96v59.95H501.1z" fill="#333333" p-id="2608"></path><path d="M501.1 273.02h59.96v59.96H501.1z" fill="#75C7F9" p-id="2609"></path><path d="M501.1 213.08h59.96v59.95H501.1z" fill="#BBE7FF" p-id="2610"></path><path d="M501.1 153.12h59.96v59.96H501.1zM441.15 752.64h59.95v59.95h-59.95zM441.15 692.68h59.95v59.96h-59.95z" fill="#333333" p-id="2611"></path><path d="M441.15 632.73h59.95v59.96h-59.95zM441.15 572.78h59.95v59.95h-59.95z" fill="#333333" p-id="2612"></path><path d="M441.15 512.83h59.95v59.96h-59.95zM441.15 452.88h59.95v59.95h-59.95z" fill="#333333" p-id="2613"></path><path d="M441.15 392.92h59.95v59.96h-59.95z" fill="#FFD578" p-id="2614"></path><path d="M441.15 332.98h59.95v59.95h-59.95z" fill="#333333" p-id="2615"></path><path d="M441.15 273.02h59.95v59.96h-59.95z" fill="#BBE7FF" p-id="2616"></path><path d="M441.15 213.08h59.95v59.95h-59.95z" fill="#BBE7FF" p-id="2617"></path><path d="M441.15 153.12h59.95v59.96h-59.95zM381.2 752.64h59.96v59.95H381.2z" fill="#333333" p-id="2618"></path><path d="M381.2 692.68h59.96v59.96H381.2z" fill="#FFCD50" p-id="2619"></path><path d="M381.2 632.73h59.96v59.96H381.2z" fill="#FFD7D7" p-id="2620"></path><path d="M381.2 572.78h59.96v59.95H381.2z" fill="#FF8D8D" p-id="2621"></path><path d="M381.2 512.83h59.96v59.96H381.2zM381.2 452.88h59.96v59.95H381.2z" fill="#FFCD50" p-id="2622"></path><path d="M381.2 392.92h59.96v59.96H381.2z" fill="#333333" p-id="2623"></path><path d="M381.2 332.98h59.96v59.95H381.2zM381.2 273.02h59.96v59.96H381.2z" fill="#333333" p-id="2624"></path><path d="M381.2 213.08h59.96v59.95H381.2zM321.25 752.64h59.95v59.95h-59.95z" fill="#333333" p-id="2625"></path><path d="M321.25 692.68h59.95v59.96h-59.95z" fill="#FFCD50" p-id="2626"></path><path d="M321.25 632.73h59.95v59.96h-59.95zM321.25 572.78h59.95v59.95h-59.95z" fill="#FFAEAE" p-id="2627"></path><path d="M321.25 512.83h59.95v59.96h-59.95zM321.25 452.88h59.95v59.95h-59.95zM321.25 392.92h59.95v59.96h-59.95z" fill="#FFCD50" p-id="2628"></path><path d="M321.25 332.98h59.95v59.95h-59.95zM261.29 752.64h59.96v59.95h-59.96z" fill="#333333" p-id="2629"></path><path d="M261.29 692.68h59.96v59.96h-59.96z" fill="#FFCD50" p-id="2630"></path><path d="M261.29 632.73h59.96v59.96h-59.96zM261.29 572.78h59.96v59.95h-59.96z" fill="#FFCD50" p-id="2631"></path><path d="M261.29 512.83h59.96v59.96h-59.96zM261.29 452.88h59.96v59.95h-59.96z" fill="#333333" p-id="2632"></path><path d="M261.29 392.92h59.96v59.96h-59.96z" fill="#FFD578" p-id="2633"></path><path d="M261.29 332.98h59.96v59.95h-59.96zM201.34 692.68h59.96v59.96h-59.96z" fill="#333333" p-id="2634"></path><path d="M201.34 632.73h59.96v59.96h-59.96zM201.34 572.78h59.96v59.95h-59.96z" fill="#FFCD50" p-id="2635"></path><path d="M201.34 512.83h59.96v59.96h-59.96zM201.34 452.88h59.96v59.95h-59.96z" fill="#FFD578" p-id="2636"></path><path d="M201.34 392.92h59.96v59.96h-59.96z" fill="#333333" p-id="2637"></path><path d="M201.34 332.98h59.96v59.95h-59.96zM201.34 273.02h59.96v59.96h-59.96zM141.39 632.73h59.95v59.96h-59.95zM141.39 572.78h59.95v59.95h-59.95z" fill="#333333" p-id="2638"></path><path d="M141.39 512.83h59.95v59.96h-59.95zM141.39 452.88h59.95v59.95h-59.95zM141.39 213.08h59.95v59.95h-59.95z" fill="#333333" p-id="2639"></path></svg>